<svg xmlns="http://www.w3.org/2000/svg" viewBox="0 0 85.04 26.65"><defs><style>.cls-1{fill:#040000;}</style></defs><title>アセット 1</title><g id="レイヤー_2" data-name="レイヤー 2"><g id="omote"><path class="cls-1" d="M4.68,19.72A5.66,5.66,0,0,1,0,17.86a7.67,7.67,0,0,1,.51-3H.65a.22.22,0,0,1,.18.08C1,17.67,2.49,19.17,5,19.17a4,4,0,0,0,4.15-4c0-2-1.22-3.17-2.8-4.42-1.27-1-2.79-2.67-2.79-4.65,0-3,2.4-5,5.85-5a7.7,7.7,0,0,1,3.77,1,14.56,14.56,0,0,0-.76,2.38l-.2.71s0,0,0,0l-.17,0a.56.56,0,0,1-.23-.05,3.09,3.09,0,0,0-.41-2.62,2.87,2.87,0,0,0-2.33-.87A3.52,3.52,0,0,0,5.22,5.27c0,2,1.83,3.38,2.71,4.06,1.43,1.11,2.9,2.55,2.9,4.87C10.83,17.45,8.3,19.72,4.68,19.72Z"/><path class="cls-1" d="M15.93,19.66a2.45,2.45,0,0,1-1.85-.73,3.55,3.55,0,0,1-.74-2.75,10.22,10.22,0,0,1,2.93-6A5.28,5.28,0,0,1,20,8.4a2.47,2.47,0,0,1,1.89.74,3.33,3.33,0,0,1,.76,2.56,10.43,10.43,0,0,1-2.86,6.12A5,5,0,0,1,15.93,19.66ZM19.76,8.93a2.71,2.71,0,0,0-2.12,1.37,15.85,15.85,0,0,0-2.77,6.93,2.14,2.14,0,0,0,.44,1.56,1.13,1.13,0,0,0,.83.35,2.92,2.92,0,0,0,2.29-1.48A16.9,16.9,0,0,0,21,10.89a2.19,2.19,0,0,0-.42-1.64A1.07,1.07,0,0,0,19.76,8.93Z"/><path class="cls-1" d="M20,26.65a.3.3,0,0,1,0-.15.25.25,0,0,1,.09-.19l.53-.08a2.25,2.25,0,0,0,2.08-1.88L27.82,9.81a.14.14,0,0,0,0-.15.16.16,0,0,0-.11-.05h0a13.73,13.73,0,0,0-2.79,1.13s0-.05,0-.1a.29.29,0,0,1,0-.24A10.94,10.94,0,0,1,28.08,9a.18.18,0,0,0,.1-.09L29,6.69h0a2.57,2.57,0,0,1,.31,0c.45,0,.91.22,1,.4l-.57,1.58a.14.14,0,0,0,0,.14.13.13,0,0,0,.12.06l.31,0c.19,0,.42,0,.73,0s3.57.08,3.57,3-1.93,5-3.56,6.38a7,7,0,0,1-3.82,1.52,2.62,2.62,0,0,1-.81-.16.77.77,0,0,0-.62.6l-1.12,3.22c-.48,1.36-.64,2-.43,2.33s.39.31.77.36l1.05.16a.39.39,0,0,1,0,.21.21.21,0,0,1-.11.12h-.43c-1.26,0-2.55.05-3.79.1ZM30.34,9.31a4.44,4.44,0,0,0-.73.06.13.13,0,0,0-.12.09l-2.85,8a1,1,0,0,0,0,.87,1.47,1.47,0,0,0,1.14.7A4.59,4.59,0,0,0,31,16.74a9.68,9.68,0,0,0,1.64-5.23A2.11,2.11,0,0,0,30.34,9.31Z"/><path class="cls-1" d="M41.81,19.66c-.78,0-.86-.45-.86-.64a.72.72,0,0,1,.59-.73.52.52,0,0,1,.29.13,1.54,1.54,0,0,0,.8.39c.52,0,.82-.49,1.24-1.46.71-1.71,2-5.56,2-7.12,0-.88-.5-1-.72-1a3.14,3.14,0,0,0-1.57.77,17.32,17.32,0,0,0-3.51,3.67,43,43,0,0,0-3.33,5.72.35.35,0,0,1-.36.24c-.24,0-.54-.05-.64-.2a.33.33,0,0,1,0-.31l5.2-15.39c.63-1.88.77-2.31.25-2.67L40.58.71a.29.29,0,0,1,.09-.12,15.79,15.79,0,0,1,3-.59l0,0L41.78,5.55,39,13.74a.14.14,0,0,0,0,.15.23.23,0,0,0,.14.07h0a.21.21,0,0,0,.14,0,17.23,17.23,0,0,1,4.29-4.49,4.56,4.56,0,0,1,2.52-1,1.49,1.49,0,0,1,1.49,1.69,15.45,15.45,0,0,1-2.12,6.34,9.75,9.75,0,0,1-1.75,2.21A2.86,2.86,0,0,1,41.81,19.66Z"/><path class="cls-1" d="M49.42,19.66a.46.46,0,0,1-.32-.19.49.49,0,0,1-.09-.58l3.48-8.3a.69.69,0,0,0,.06-.61.29.29,0,0,0-.25-.12A6.12,6.12,0,0,0,50,11.3a.26.26,0,0,1-.13-.1.21.21,0,0,1,0-.17A7.78,7.78,0,0,1,54.19,8.4c.11,0,.21.11.29.2s.18.27-.16,1.08l-3.26,7.77c0,.11-.17.48,0,.69a.3.3,0,0,0,.25.12,6.45,6.45,0,0,0,2.91-2,.28.28,0,0,1,.2.3C54,17.24,51.22,19.66,49.42,19.66ZM54.19,5.2a.8.8,0,0,1-.81-.86c0-.52.32-1.58,1.3-1.58.68,0,.78.56.78.89A1.48,1.48,0,0,1,54.19,5.2Z"/><path class="cls-1" d="M56.79,19.66a1.46,1.46,0,0,1-1.52-1.3,1.18,1.18,0,0,1,.37-.8.4.4,0,0,1,.26-.1.4.4,0,0,1,.27.11,3.19,3.19,0,0,0,2,1.13A1.65,1.65,0,0,0,59.63,17a5.82,5.82,0,0,0-1-2.49A5.42,5.42,0,0,1,57.65,12c0-1,.43-1.76,1.59-2.76a3.52,3.52,0,0,1,1.93-.87,1.5,1.5,0,0,1,1.5,1.42.81.81,0,0,1-.41.71h0a.36.36,0,0,1-.31-.17l-.09-.1a2.18,2.18,0,0,0-1.7-.84,1.27,1.27,0,0,0-1.27,1.24,4.76,4.76,0,0,0,1,2.57,4.69,4.69,0,0,1,1,3,3.65,3.65,0,0,1-1.37,2.52A4,4,0,0,1,56.79,19.66Z"/><path class="cls-1" d="M69.13,19.66c-.78,0-.87-.45-.87-.64a.73.73,0,0,1,.59-.73.52.52,0,0,1,.29.13,1.59,1.59,0,0,0,.81.39c.51,0,.82-.49,1.23-1.46.72-1.72,2-5.56,2-7.12,0-.88-.51-1-.73-1a3.23,3.23,0,0,0-1.57.77,17.55,17.55,0,0,0-3.5,3.67A43.82,43.82,0,0,0,64,19.42a.36.36,0,0,1-.36.24.86.86,0,0,1-.65-.2.36.36,0,0,1,0-.31L68.23,3.76c.62-1.88.77-2.31.24-2.67L67.9.71A.18.18,0,0,1,68,.59,15.66,15.66,0,0,1,71,0l0,0L69.1,5.55l-2.82,8.19a.14.14,0,0,0,0,.15.27.27,0,0,0,.14.07h0s.11,0,.13,0a17,17,0,0,1,4.3-4.49,4.53,4.53,0,0,1,2.51-1,1.48,1.48,0,0,1,1.49,1.69,15.57,15.57,0,0,1-2.11,6.34A9.56,9.56,0,0,1,71,18.64,2.83,2.83,0,0,1,69.13,19.66Z"/><path class="cls-1" d="M78.31,19.66c-1.52,0-2.07-1.41-2.07-2.72a10.17,10.17,0,0,1,4-7.25A5,5,0,0,1,83.46,8.4,1.58,1.58,0,0,1,85,9.9c0,1.76-2.08,3.16-6.55,4.4a.18.18,0,0,0-.1.09A7.07,7.07,0,0,0,78,16.88a1.54,1.54,0,0,0,1.46,1.71c1,0,1.78-.58,3-1.62,0,0,0,.06.07.11a.25.25,0,0,1,0,.21A5.61,5.61,0,0,1,78.31,19.66ZM82.92,9c-.35,0-1.1.18-2.2,1.37a11,11,0,0,0-2,3.25.14.14,0,0,0,0,.15.14.14,0,0,0,.11,0h0a8.19,8.19,0,0,0,3.73-2.07,3.2,3.2,0,0,0,1.11-2A.73.73,0,0,0,82.92,9Z"/></g></g></svg>